<svg width="25" height="24" viewBox="0 0 25 24" fill="none" xmlns="http://www.w3.org/2000/svg">
<path d="M20.7373 7.41425L10.3958 17.7557C10.3042 17.8481 10.1795 17.9 10.0495 17.9C9.9194 17.9 9.79471 17.8481 9.70312 17.7557L4.44459 12.4971C4.35223 12.4056 4.30029 12.2809 4.30029 12.1508C4.30029 12.0207 4.35223 11.8961 4.44459 11.8045L5.12751 11.1215C5.2191 11.0292 5.34379 10.9772 5.47385 10.9772C5.60392 10.9772 5.72861 11.0292 5.8202 11.1215L10.0446 15.3459L19.3617 6.02888C19.5546 5.84177 19.8614 5.84177 20.0543 6.02888L20.7373 6.72157C20.8297 6.81316 20.8816 6.93784 20.8816 7.06791C20.8816 7.19798 20.8297 7.32265 20.7373 7.41425Z" fill="#3D3A41"/>
</svg>
