<svg width="24" height="24" viewBox="0 0 24 24" fill="none" xmlns="http://www.w3.org/2000/svg">
<path d="M20.4045 7.41413L10.063 17.7556C9.97145 17.8479 9.84677 17.8998 9.7167 17.8998C9.58663 17.8998 9.46195 17.8479 9.37036 17.7556L4.11182 12.497C4.01947 12.4055 3.96753 12.2808 3.96753 12.1507C3.96753 12.0206 4.01947 11.8959 4.11182 11.8043L4.79475 11.1214C4.88634 11.0291 5.01102 10.9771 5.14109 10.9771C5.27116 10.9771 5.39584 11.0291 5.48743 11.1214L9.71182 15.3458L19.0289 6.02876C19.2219 5.84165 19.5286 5.84165 19.7216 6.02876L20.4045 6.72144C20.4969 6.81304 20.5488 6.93772 20.5488 7.06779C20.5488 7.19785 20.4969 7.32253 20.4045 7.41413Z" fill="#D6D6D6"/>
</svg>
