<svg width="32" height="32" viewBox="0 0 32 32" fill="none" xmlns="http://www.w3.org/2000/svg">
<path d="M7.13334 25.8799C9.48 28.0132 12.5867 29.2932 16 29.2932C23.3333 29.2932 29.2933 23.3332 29.2933 15.9999C29.2933 8.66655 23.3333 2.70655 16 2.70655C12.5867 2.70655 9.48 3.98655 7.13334 6.11988C4.41334 8.53321 2.70667 12.0799 2.70667 15.9999C2.70667 19.9199 4.41334 23.4665 7.13334 25.8799ZM16.04 10.1465C16.0667 7.94655 17.7067 7.41321 19.24 8.02655C22.4 9.29321 24.6267 12.3865 24.6267 15.9999C24.6267 19.6132 22.4 22.7065 19.24 23.9865C17.7067 24.5999 16.0667 24.0532 16.04 21.8665V10.1465Z" fill="white"/>
</svg>
