<svg width="32" height="32" viewBox="0 0 32 32" fill="none" xmlns="http://www.w3.org/2000/svg">
<path d="M24.8668 6.12012C22.5201 3.98679 19.4135 2.70679 16.0001 2.70679C8.66679 2.70679 2.70679 8.66679 2.70679 16.0001C2.70679 23.3335 8.66679 29.2935 16.0001 29.2935C19.4135 29.2935 22.5201 28.0135 24.8668 25.8801C27.5868 23.4668 29.2935 19.9201 29.2935 16.0001C29.2935 12.0801 27.5868 8.53345 24.8668 6.12012ZM15.9601 21.8535C15.9335 24.0535 14.2935 24.5868 12.7601 23.9735C9.60012 22.7068 7.37345 19.6135 7.37345 16.0001C7.37345 12.3868 9.60012 9.29345 12.7601 8.01345C14.2935 7.40012 15.9335 7.94679 15.9601 10.1335V21.8535Z" fill="white"/>
</svg>
