<svg width="400" height="343" viewBox="0 0 400 343" fill="none" xmlns="http://www.w3.org/2000/svg">
<rect x="81.4111" width="268.127" height="217.632" rx="3.01266" fill="#F3F1FF"/>
<rect x="93.4629" y="36.2727" width="244.025" height="169.27" rx="3.01266" fill="white"/>
<rect x="105.513" y="48.3633" width="219.924" height="145.088" rx="3.01266" fill="#F3F1FF"/>
<rect x="117.562" y="60.4543" width="61.0063" height="6.04535" rx="3.02267" fill="white"/>
<rect x="117.562" y="72.5439" width="61.0063" height="6.04535" rx="3.02267" fill="white"/>
<rect x="117.562" y="84.635" width="39.1646" height="6.04535" rx="3.02267" fill="white"/>
<rect x="179.323" y="151.134" width="61.0063" height="6.02532" rx="3.01266" fill="white"/>
<rect x="179.323" y="163.185" width="61.0063" height="6.02532" rx="3.01266" fill="white"/>
<rect x="179.323" y="175.235" width="39.1646" height="6.02532" rx="3.01266" fill="white"/>
<rect x="252.38" y="151.134" width="61.0063" height="6.02532" rx="3.01266" fill="white"/>
<rect x="252.38" y="163.185" width="61.0063" height="6.02532" rx="3.01266" fill="white"/>
<rect x="252.38" y="175.235" width="39.1646" height="6.02532" rx="3.01266" fill="white"/>
<circle cx="99.4882" cy="18.1359" r="6.02532" fill="#C4C4C4"/>
<circle cx="118.318" cy="18.1359" r="6.02532" fill="#C4C4C4"/>
<circle cx="137.146" cy="18.1359" r="6.02532" fill="#C4C4C4"/>
<rect x="305.855" y="12.8638" width="31.6329" height="10.5443" rx="5.27215" fill="#D9D9D9"/>
<rect x="213.215" y="62.7207" width="186.785" height="36.2721" rx="2.84529" fill="#FF007A"/>
<rect x="220.746" y="74.7712" width="12.0506" height="12.0506" fill="#F3F1FF"/>
<rect x="274.221" y="77.7839" width="25.6076" height="6.02532" rx="3.01266" fill="white"/>
<rect x="305.854" y="77.7839" width="25.6076" height="6.02532" rx="3.01266" fill="white"/>
<rect x="337.486" y="77.7837" width="25.6076" height="6.02532" rx="3.01266" fill="white"/>
<rect x="381.17" y="77.7839" width="11.2975" height="6.02532" rx="3.01266" fill="white"/>
<g filter="url(#filter0_d_2_87)">
<rect x="43" y="145.844" width="124.272" height="154.156" rx="3.01266" fill="white" shape-rendering="crispEdges"/>
<path d="M57.364 168.978C57.1872 168.978 57.0507 168.93 56.9543 168.834C56.8579 168.729 56.8097 168.585 56.8097 168.4V160.965C56.8097 160.78 56.8579 160.639 56.9543 160.543C57.0587 160.447 57.1993 160.398 57.376 160.398H60.2441C61.1599 160.398 61.8629 160.623 62.353 161.073C62.851 161.523 63.1001 162.154 63.1001 162.965C63.1001 163.785 62.851 164.419 62.353 164.869C61.8629 165.319 61.1599 165.544 60.2441 165.544H57.9304V168.4C57.9304 168.585 57.8822 168.729 57.7858 168.834C57.6974 168.93 57.5568 168.978 57.364 168.978ZM57.9304 164.64H60.0995C60.7261 164.64 61.1961 164.5 61.5094 164.218C61.8308 163.929 61.9914 163.511 61.9914 162.965C61.9914 162.419 61.8308 162.009 61.5094 161.736C61.1961 161.455 60.7261 161.314 60.0995 161.314H57.9304V164.64ZM65.7911 169.002C65.3894 169.002 65.0238 168.922 64.6944 168.761C64.3731 168.601 64.12 168.384 63.9353 168.111C63.7585 167.838 63.6701 167.532 63.6701 167.195C63.6701 166.761 63.7786 166.42 63.9955 166.171C64.2124 165.922 64.578 165.745 65.0921 165.64C65.6063 165.528 66.2972 165.472 67.1648 165.472H67.7312V166.171H67.1889C66.5703 166.171 66.0803 166.199 65.7187 166.255C65.3653 166.311 65.1162 166.412 64.9716 166.556C64.827 166.693 64.7547 166.886 64.7547 167.135C64.7547 167.448 64.8632 167.705 65.0801 167.906C65.305 168.107 65.6103 168.207 65.9959 168.207C66.3012 168.207 66.5703 168.135 66.8033 167.99C67.0363 167.838 67.2211 167.637 67.3576 167.388C67.4942 167.131 67.5625 166.837 67.5625 166.508V165.122C67.5625 164.648 67.4661 164.307 67.2733 164.098C67.0805 163.881 66.7551 163.773 66.2972 163.773C66.0321 163.773 65.7589 163.809 65.4777 163.881C65.1966 163.953 64.9033 164.066 64.598 164.218C64.4775 164.275 64.3731 164.295 64.2847 164.279C64.1964 164.255 64.124 164.206 64.0678 164.134C64.0196 164.054 63.9915 163.969 63.9835 163.881C63.9835 163.785 64.0035 163.692 64.0437 163.604C64.0919 163.515 64.1723 163.451 64.2847 163.411C64.6382 163.234 64.9877 163.11 65.3331 163.037C65.6866 162.957 66.016 162.917 66.3213 162.917C66.8435 162.917 67.2733 163.001 67.6107 163.17C67.9481 163.331 68.2012 163.584 68.3699 163.929C68.5386 164.267 68.623 164.7 68.623 165.231V168.412C68.623 168.597 68.5788 168.737 68.4904 168.834C68.402 168.93 68.2735 168.978 68.1048 168.978C67.9441 168.978 67.8156 168.93 67.7192 168.834C67.6308 168.737 67.5866 168.597 67.5866 168.412V167.556H67.6951C67.6308 167.854 67.5103 168.111 67.3335 168.328C67.1568 168.545 66.9359 168.713 66.6707 168.834C66.4137 168.946 66.1204 169.002 65.7911 169.002ZM72.2526 169.002C71.8911 169.002 71.5256 168.962 71.156 168.882C70.7945 168.794 70.4531 168.645 70.1317 168.436C70.0434 168.38 69.9791 168.312 69.9389 168.231C69.9068 168.143 69.8947 168.059 69.9028 167.978C69.9188 167.89 69.955 167.814 70.0112 167.749C70.0675 167.685 70.1357 167.649 70.2161 167.641C70.3045 167.625 70.3968 167.645 70.4932 167.701C70.8066 167.878 71.1078 168.002 71.397 168.075C71.6943 168.147 71.9875 168.183 72.2767 168.183C72.7186 168.183 73.052 168.103 73.2769 167.942C73.5019 167.781 73.6144 167.568 73.6144 167.303C73.6144 167.078 73.538 166.906 73.3854 166.785C73.2408 166.657 73.0118 166.56 72.6985 166.496L71.5778 166.267C71.0797 166.155 70.7021 165.97 70.445 165.713C70.196 165.448 70.0715 165.11 70.0715 164.7C70.0715 164.339 70.1679 164.026 70.3607 163.76C70.5615 163.487 70.8387 163.278 71.1922 163.134C71.5457 162.989 71.9514 162.917 72.4093 162.917C72.7628 162.917 73.0962 162.965 73.4095 163.062C73.7309 163.15 74.0201 163.286 74.2771 163.471C74.3736 163.527 74.4338 163.6 74.4579 163.688C74.49 163.769 74.4941 163.853 74.47 163.941C74.4539 164.022 74.4177 164.09 74.3615 164.146C74.3053 164.202 74.233 164.238 74.1446 164.255C74.0562 164.263 73.9598 164.238 73.8554 164.182C73.6224 164.022 73.3814 163.909 73.1323 163.845C72.8913 163.773 72.6503 163.736 72.4093 163.736C71.9755 163.736 71.6461 163.821 71.4211 163.989C71.2042 164.158 71.0958 164.379 71.0958 164.652C71.0958 164.861 71.16 165.034 71.2886 165.17C71.4252 165.307 71.6381 165.407 71.9273 165.472L73.048 165.701C73.5702 165.813 73.9638 165.994 74.2289 166.243C74.4941 166.484 74.6266 166.813 74.6266 167.231C74.6266 167.777 74.4097 168.211 73.9759 168.533C73.5501 168.846 72.9757 169.002 72.2526 169.002ZM77.9574 169.002C77.5959 169.002 77.2303 168.962 76.8608 168.882C76.4993 168.794 76.1578 168.645 75.8365 168.436C75.7481 168.38 75.6838 168.312 75.6437 168.231C75.6115 168.143 75.5995 168.059 75.6075 167.978C75.6236 167.89 75.6597 167.814 75.716 167.749C75.7722 167.685 75.8405 167.649 75.9208 167.641C76.0092 167.625 76.1016 167.645 76.198 167.701C76.5113 167.878 76.8126 168.002 77.1018 168.075C77.399 168.147 77.6923 168.183 77.9815 168.183C78.4233 168.183 78.7567 168.103 78.9817 167.942C79.2066 167.781 79.3191 167.568 79.3191 167.303C79.3191 167.078 79.2428 166.906 79.0902 166.785C78.9455 166.657 78.7166 166.56 78.4033 166.496L77.2826 166.267C76.7845 166.155 76.4069 165.97 76.1498 165.713C75.9007 165.448 75.7762 165.11 75.7762 164.7C75.7762 164.339 75.8726 164.026 76.0654 163.76C76.2663 163.487 76.5434 163.278 76.8969 163.134C77.2504 162.989 77.6561 162.917 78.114 162.917C78.4675 162.917 78.8009 162.965 79.1143 163.062C79.4356 163.15 79.7248 163.286 79.9819 163.471C80.0783 163.527 80.1386 163.6 80.1627 163.688C80.1948 163.769 80.1988 163.853 80.1747 163.941C80.1586 164.022 80.1225 164.09 80.0663 164.146C80.01 164.202 79.9377 164.238 79.8493 164.255C79.761 164.263 79.6646 164.238 79.5601 164.182C79.3271 164.022 79.0861 163.909 78.8371 163.845C78.5961 163.773 78.3551 163.736 78.114 163.736C77.6802 163.736 77.3508 163.821 77.1259 163.989C76.909 164.158 76.8005 164.379 76.8005 164.652C76.8005 164.861 76.8648 165.034 76.9933 165.17C77.1299 165.307 77.3428 165.407 77.632 165.472L78.7527 165.701C79.2749 165.813 79.6686 165.994 79.9337 166.243C80.1988 166.484 80.3314 166.813 80.3314 167.231C80.3314 167.777 80.1145 168.211 79.6806 168.533C79.2548 168.846 78.6804 169.002 77.9574 169.002ZM83.6047 168.978C83.4521 168.978 83.3195 168.942 83.207 168.87C83.0946 168.79 83.0062 168.661 82.9419 168.484L81.1464 163.7C81.0901 163.548 81.0741 163.415 81.0982 163.303C81.1223 163.19 81.1785 163.102 81.2669 163.037C81.3553 162.973 81.4718 162.941 81.6164 162.941C81.7529 162.941 81.8614 162.973 81.9417 163.037C82.0221 163.102 82.0903 163.218 82.1466 163.387L83.7855 168.014H83.4963L85.1833 163.363C85.2396 163.218 85.3119 163.114 85.4003 163.049C85.4967 162.977 85.6132 162.941 85.7497 162.941C85.8943 162.941 86.0148 162.977 86.1112 163.049C86.2076 163.114 86.2759 163.218 86.3161 163.363L87.9791 168.014H87.7019L89.3649 163.363C89.4212 163.202 89.4935 163.094 89.5818 163.037C89.6702 162.973 89.7787 162.941 89.9072 162.941C90.0518 162.941 90.1603 162.977 90.2326 163.049C90.3049 163.122 90.345 163.218 90.3531 163.339C90.3691 163.451 90.3531 163.572 90.3049 163.7L88.5093 168.484C88.4531 168.653 88.3647 168.778 88.2442 168.858C88.1317 168.938 87.9992 168.978 87.8465 168.978C87.6939 168.978 87.5573 168.938 87.4368 168.858C87.3243 168.778 87.236 168.653 87.1717 168.484L85.4485 163.76H86.0028L84.2795 168.484C84.2153 168.653 84.1269 168.778 84.0144 168.858C83.902 168.938 83.7654 168.978 83.6047 168.978ZM93.9675 169.002C93.3891 169.002 92.887 168.878 92.4612 168.629C92.0354 168.38 91.706 168.026 91.473 167.568C91.24 167.111 91.1236 166.572 91.1236 165.954C91.1236 165.488 91.1878 165.07 91.3164 164.7C91.4529 164.323 91.6457 164.001 91.8948 163.736C92.1438 163.471 92.4411 163.27 92.7865 163.134C93.14 162.989 93.5337 162.917 93.9675 162.917C94.5459 162.917 95.048 163.041 95.4738 163.29C95.8996 163.54 96.229 163.893 96.462 164.351C96.695 164.801 96.8114 165.335 96.8114 165.954C96.8114 166.42 96.7432 166.841 96.6066 167.219C96.478 167.597 96.2893 167.918 96.0402 168.183C95.7912 168.448 95.4899 168.653 95.1364 168.798C94.791 168.934 94.4013 169.002 93.9675 169.002ZM93.9675 168.135C94.321 168.135 94.6263 168.05 94.8833 167.882C95.1485 167.713 95.3493 167.468 95.4859 167.147C95.6305 166.825 95.7028 166.428 95.7028 165.954C95.7028 165.247 95.5461 164.708 95.2328 164.339C94.9195 163.969 94.4977 163.785 93.9675 163.785C93.622 163.785 93.3168 163.869 93.0517 164.038C92.7946 164.198 92.5937 164.439 92.4491 164.761C92.3045 165.082 92.2322 165.48 92.2322 165.954C92.2322 166.661 92.3889 167.203 92.7022 167.581C93.0235 167.95 93.4453 168.135 93.9675 168.135ZM98.6621 168.978C98.4773 168.978 98.3367 168.93 98.2403 168.834C98.1439 168.737 98.0957 168.597 98.0957 168.412V163.495C98.0957 163.311 98.1439 163.174 98.2403 163.086C98.3367 162.989 98.4693 162.941 98.638 162.941C98.8067 162.941 98.9352 162.989 99.0236 163.086C99.12 163.174 99.1682 163.311 99.1682 163.495V164.423H99.0477C99.1762 163.941 99.4172 163.576 99.7707 163.327C100.124 163.078 100.57 162.937 101.108 162.905C101.237 162.897 101.341 162.929 101.422 163.001C101.502 163.066 101.546 163.178 101.554 163.339C101.562 163.491 101.526 163.616 101.446 163.712C101.365 163.801 101.241 163.853 101.072 163.869L100.855 163.881C100.325 163.937 99.9153 164.11 99.6261 164.399C99.3449 164.688 99.2044 165.086 99.2044 165.592V168.412C99.2044 168.597 99.1561 168.737 99.0597 168.834C98.9714 168.93 98.8388 168.978 98.6621 168.978ZM104.536 169.002C104.021 169.002 103.567 168.882 103.174 168.641C102.788 168.392 102.487 168.038 102.27 167.581C102.053 167.115 101.945 166.572 101.945 165.954C101.945 165.327 102.049 164.789 102.258 164.339C102.475 163.881 102.776 163.532 103.162 163.29C103.555 163.041 104.013 162.917 104.536 162.917C105.058 162.917 105.508 163.049 105.885 163.315C106.263 163.572 106.516 163.917 106.644 164.351H106.512V160.868C106.512 160.684 106.556 160.547 106.644 160.459C106.741 160.362 106.877 160.314 107.054 160.314C107.231 160.314 107.367 160.362 107.464 160.459C107.56 160.547 107.608 160.684 107.608 160.868V168.412C107.608 168.597 107.56 168.737 107.464 168.834C107.367 168.93 107.231 168.978 107.054 168.978C106.885 168.978 106.753 168.93 106.656 168.834C106.56 168.737 106.512 168.597 106.512 168.412V167.315L106.644 167.532C106.524 167.982 106.271 168.34 105.885 168.605C105.508 168.87 105.058 169.002 104.536 169.002ZM104.789 168.135C105.142 168.135 105.447 168.05 105.704 167.882C105.97 167.713 106.17 167.468 106.307 167.147C106.452 166.825 106.524 166.428 106.524 165.954C106.524 165.247 106.367 164.708 106.054 164.339C105.741 163.969 105.319 163.785 104.789 163.785C104.443 163.785 104.138 163.869 103.873 164.038C103.616 164.198 103.415 164.439 103.27 164.761C103.126 165.082 103.053 165.48 103.053 165.954C103.053 166.661 103.21 167.203 103.523 167.581C103.845 167.95 104.266 168.135 104.789 168.135Z" fill="#393333"/>
<rect x="55.6362" y="183.945" width="94.5869" height="16.5696" rx="8.28481" fill="#F3F1FF"/>
<path d="M63.3739 193.789L63.9917 192.665L64.6213 193.789C64.6488 193.84 64.6802 193.883 64.7155 193.918C64.7547 193.95 64.7939 193.973 64.8332 193.989C64.8724 194.005 64.9116 194.012 64.9508 194.012C65.0528 194.012 65.143 193.973 65.2215 193.895C65.3 193.816 65.3392 193.722 65.3392 193.612C65.3392 193.573 65.3333 193.534 65.3215 193.495C65.3098 193.451 65.2921 193.41 65.2686 193.371L64.6213 192.329L65.957 192.371C66.0825 192.371 66.1786 192.333 66.2453 192.259C66.3159 192.184 66.3512 192.096 66.3512 191.994C66.3512 191.892 66.3159 191.804 66.2453 191.729C66.1786 191.655 66.0825 191.618 65.957 191.618L64.6331 191.665L65.298 190.582C65.3176 190.547 65.3313 190.511 65.3392 190.476C65.351 190.441 65.3568 190.405 65.3568 190.37C65.3568 190.299 65.3392 190.233 65.3039 190.17C65.2686 190.107 65.2215 190.058 65.1627 190.023C65.1077 189.988 65.0469 189.97 64.9803 189.97C64.9175 189.97 64.8547 189.99 64.792 190.029C64.7292 190.068 64.6743 190.127 64.6272 190.205L63.9917 191.353L63.3562 190.188C63.3484 190.172 63.3386 190.156 63.3268 190.141C63.3151 190.125 63.3033 190.111 63.2915 190.099C63.2837 190.088 63.2739 190.078 63.2621 190.07C63.2503 190.058 63.2386 190.048 63.2268 190.041C63.215 190.029 63.2013 190.021 63.1856 190.017C63.1738 190.009 63.1601 190.003 63.1444 189.999C63.1326 189.992 63.1209 189.988 63.1091 189.988C63.0973 189.984 63.0836 189.982 63.0679 189.982C63.0562 189.978 63.0424 189.976 63.0267 189.976C62.9247 189.976 62.8326 190.015 62.7502 190.094C62.6717 190.168 62.6325 190.26 62.6325 190.37C62.6325 190.449 62.656 190.525 62.7031 190.6L63.3562 191.665L62.05 191.618C61.9676 191.618 61.895 191.637 61.8323 191.676C61.7734 191.712 61.7303 191.757 61.7028 191.812C61.6754 191.867 61.6616 191.927 61.6616 191.994C61.6616 192.096 61.695 192.184 61.7617 192.259C61.8323 192.333 61.9284 192.371 62.05 192.371L63.3739 192.329L62.7031 193.406C62.6874 193.43 62.6737 193.455 62.6619 193.483C62.6541 193.506 62.6482 193.53 62.6443 193.553C62.6403 193.573 62.6384 193.595 62.6384 193.618C62.6384 193.728 62.6776 193.822 62.7561 193.901C62.8384 193.975 62.9306 194.012 63.0326 194.012C63.0993 194.012 63.1621 193.995 63.2209 193.959C63.2797 193.924 63.3307 193.867 63.3739 193.789Z" fill="#FF007A"/>
<path d="M76.3485 193.789L76.9663 192.665L77.5959 193.789C77.6234 193.84 77.6548 193.883 77.6901 193.918C77.7293 193.95 77.7685 193.973 77.8078 193.989C77.847 194.005 77.8862 194.012 77.9254 194.012C78.0274 194.012 78.1177 193.973 78.1961 193.895C78.2746 193.816 78.3138 193.722 78.3138 193.612C78.3138 193.573 78.3079 193.534 78.2961 193.495C78.2844 193.451 78.2667 193.41 78.2432 193.371L77.5959 192.329L78.9316 192.371C79.0571 192.371 79.1533 192.333 79.2199 192.259C79.2906 192.184 79.3259 192.096 79.3259 191.994C79.3259 191.892 79.2906 191.804 79.2199 191.729C79.1533 191.655 79.0571 191.618 78.9316 191.618L77.6077 191.665L78.2726 190.582C78.2922 190.547 78.3059 190.511 78.3138 190.476C78.3256 190.441 78.3314 190.405 78.3314 190.37C78.3314 190.299 78.3138 190.233 78.2785 190.17C78.2432 190.107 78.1961 190.058 78.1373 190.023C78.0824 189.988 78.0215 189.97 77.9549 189.97C77.8921 189.97 77.8293 189.99 77.7666 190.029C77.7038 190.068 77.6489 190.127 77.6018 190.205L76.9663 191.353L76.3309 190.188C76.323 190.172 76.3132 190.156 76.3014 190.141C76.2897 190.125 76.2779 190.111 76.2661 190.099C76.2583 190.088 76.2485 190.078 76.2367 190.07C76.2249 190.058 76.2132 190.048 76.2014 190.041C76.1896 190.029 76.1759 190.021 76.1602 190.017C76.1484 190.009 76.1347 190.003 76.119 189.999C76.1073 189.992 76.0955 189.988 76.0837 189.988C76.072 189.984 76.0582 189.982 76.0425 189.982C76.0308 189.978 76.017 189.976 76.0013 189.976C75.8994 189.976 75.8072 190.015 75.7248 190.094C75.6463 190.168 75.6071 190.26 75.6071 190.37C75.6071 190.449 75.6306 190.525 75.6777 190.6L76.3309 191.665L75.0246 191.618C74.9422 191.618 74.8696 191.637 74.8069 191.676C74.748 191.712 74.7049 191.757 74.6774 191.812C74.65 191.867 74.6362 191.927 74.6362 191.994C74.6362 192.096 74.6696 192.184 74.7363 192.259C74.8069 192.333 74.903 192.371 75.0246 192.371L76.3485 192.329L75.6777 193.406C75.662 193.43 75.6483 193.455 75.6365 193.483C75.6287 193.506 75.6228 193.53 75.6189 193.553C75.615 193.573 75.613 193.595 75.613 193.618C75.613 193.728 75.6522 193.822 75.7307 193.901C75.8131 193.975 75.9052 194.012 76.0072 194.012C76.0739 194.012 76.1367 193.995 76.1955 193.959C76.2544 193.924 76.3054 193.867 76.3485 193.789Z" fill="#FF007A"/>
<path d="M89.3231 193.789L89.9409 192.665L90.5705 193.789C90.598 193.84 90.6294 193.883 90.6647 193.918C90.7039 193.95 90.7431 193.973 90.7824 193.989C90.8216 194.005 90.8608 194.012 90.9001 194.012C91.002 194.012 91.0923 193.973 91.1707 193.895C91.2492 193.816 91.2884 193.722 91.2884 193.612C91.2884 193.573 91.2825 193.534 91.2707 193.495C91.259 193.451 91.2413 193.41 91.2178 193.371L90.5705 192.329L91.9062 192.371C92.0318 192.371 92.1279 192.333 92.1946 192.259C92.2652 192.184 92.3005 192.096 92.3005 191.994C92.3005 191.892 92.2652 191.804 92.1946 191.729C92.1279 191.655 92.0318 191.618 91.9062 191.618L90.5823 191.665L91.2472 190.582C91.2668 190.547 91.2806 190.511 91.2884 190.476C91.3002 190.441 91.3061 190.405 91.3061 190.37C91.3061 190.299 91.2884 190.233 91.2531 190.17C91.2178 190.107 91.1707 190.058 91.1119 190.023C91.057 189.988 90.9962 189.97 90.9295 189.97C90.8667 189.97 90.8039 189.99 90.7412 190.029C90.6784 190.068 90.6235 190.127 90.5764 190.205L89.9409 191.353L89.3055 190.188C89.2976 190.172 89.2878 190.156 89.276 190.141C89.2643 190.125 89.2525 190.111 89.2407 190.099C89.2329 190.088 89.2231 190.078 89.2113 190.07C89.1995 190.058 89.1878 190.048 89.176 190.041C89.1642 190.029 89.1505 190.021 89.1348 190.017C89.1231 190.009 89.1093 190.003 89.0936 189.999C89.0819 189.992 89.0701 189.988 89.0583 189.988C89.0466 189.984 89.0328 189.982 89.0171 189.982C89.0054 189.978 88.9916 189.976 88.976 189.976C88.874 189.976 88.7818 190.015 88.6994 190.094C88.6209 190.168 88.5817 190.26 88.5817 190.37C88.5817 190.449 88.6053 190.525 88.6523 190.6L89.3055 191.665L87.9992 191.618C87.9168 191.618 87.8442 191.637 87.7815 191.676C87.7226 191.712 87.6795 191.757 87.652 191.812C87.6246 191.867 87.6108 191.927 87.6108 191.994C87.6108 192.096 87.6442 192.184 87.7109 192.259C87.7815 192.333 87.8776 192.371 87.9992 192.371L89.3231 192.329L88.6523 193.406C88.6366 193.43 88.6229 193.455 88.6111 193.483C88.6033 193.506 88.5974 193.53 88.5935 193.553C88.5896 193.573 88.5876 193.595 88.5876 193.618C88.5876 193.728 88.6268 193.822 88.7053 193.901C88.7877 193.975 88.8798 194.012 88.9818 194.012C89.0485 194.012 89.1113 193.995 89.1701 193.959C89.229 193.924 89.28 193.867 89.3231 193.789Z" fill="#FF007A"/>
<path d="M102.297 193.789L102.915 192.665L103.545 193.789C103.572 193.84 103.604 193.883 103.639 193.918C103.678 193.95 103.717 193.973 103.756 193.989C103.796 194.005 103.835 194.012 103.874 194.012C103.976 194.012 104.066 193.973 104.145 193.895C104.223 193.816 104.263 193.722 104.263 193.612C104.263 193.573 104.257 193.534 104.245 193.495C104.233 193.451 104.215 193.41 104.192 193.371L103.545 192.329L104.88 192.371C105.006 192.371 105.102 192.333 105.169 192.259C105.239 192.184 105.275 192.096 105.275 191.994C105.275 191.892 105.239 191.804 105.169 191.729C105.102 191.655 105.006 191.618 104.88 191.618L103.556 191.665L104.221 190.582C104.241 190.547 104.255 190.511 104.263 190.476C104.274 190.441 104.28 190.405 104.28 190.37C104.28 190.299 104.263 190.233 104.227 190.17C104.192 190.107 104.145 190.058 104.086 190.023C104.031 189.988 103.97 189.97 103.904 189.97C103.841 189.97 103.778 189.99 103.715 190.029C103.653 190.068 103.598 190.127 103.551 190.205L102.915 191.353L102.28 190.188C102.272 190.172 102.262 190.156 102.25 190.141C102.238 190.125 102.227 190.111 102.215 190.099C102.207 190.088 102.197 190.078 102.185 190.07C102.174 190.058 102.162 190.048 102.15 190.041C102.138 190.029 102.125 190.021 102.109 190.017C102.097 190.009 102.083 190.003 102.068 189.999C102.056 189.992 102.044 189.988 102.032 189.988C102.021 189.984 102.007 189.982 101.991 189.982C101.979 189.978 101.966 189.976 101.95 189.976C101.848 189.976 101.756 190.015 101.674 190.094C101.595 190.168 101.556 190.26 101.556 190.37C101.556 190.449 101.579 190.525 101.626 190.6L102.28 191.665L100.973 191.618C100.891 191.618 100.818 191.637 100.756 191.676C100.697 191.712 100.654 191.757 100.626 191.812C100.599 191.867 100.585 191.927 100.585 191.994C100.585 192.096 100.618 192.184 100.685 192.259C100.756 192.333 100.852 192.371 100.973 192.371L102.297 192.329L101.626 193.406C101.611 193.43 101.597 193.455 101.585 193.483C101.577 193.506 101.572 193.53 101.568 193.553C101.564 193.573 101.562 193.595 101.562 193.618C101.562 193.728 101.601 193.822 101.679 193.901C101.762 193.975 101.854 194.012 101.956 194.012C102.023 194.012 102.085 193.995 102.144 193.959C102.203 193.924 102.254 193.867 102.297 193.789Z" fill="#FF007A"/>
<path d="M115.272 193.789L115.89 192.665L116.519 193.789C116.547 193.84 116.578 193.883 116.613 193.918C116.653 193.95 116.692 193.973 116.731 193.989C116.77 194.005 116.81 194.012 116.849 194.012C116.951 194.012 117.041 193.973 117.119 193.895C117.198 193.816 117.237 193.722 117.237 193.612C117.237 193.573 117.231 193.534 117.219 193.495C117.208 193.451 117.19 193.41 117.167 193.371L116.519 192.329L117.855 192.371C117.98 192.371 118.077 192.333 118.143 192.259C118.214 192.184 118.249 192.096 118.249 191.994C118.249 191.892 118.214 191.804 118.143 191.729C118.077 191.655 117.98 191.618 117.855 191.618L116.531 191.665L117.196 190.582C117.216 190.547 117.229 190.511 117.237 190.476C117.249 190.441 117.255 190.405 117.255 190.37C117.255 190.299 117.237 190.233 117.202 190.17C117.167 190.107 117.119 190.058 117.061 190.023C117.006 189.988 116.945 189.97 116.878 189.97C116.815 189.97 116.753 189.99 116.69 190.029C116.627 190.068 116.572 190.127 116.525 190.205L115.89 191.353L115.254 190.188C115.246 190.172 115.237 190.156 115.225 190.141C115.213 190.125 115.201 190.111 115.189 190.099C115.182 190.088 115.172 190.078 115.16 190.07C115.148 190.058 115.137 190.048 115.125 190.041C115.113 190.029 115.099 190.021 115.084 190.017C115.072 190.009 115.058 190.003 115.042 189.999C115.031 189.992 115.019 189.988 115.007 189.988C114.995 189.984 114.982 189.982 114.966 189.982C114.954 189.978 114.94 189.976 114.925 189.976C114.823 189.976 114.731 190.015 114.648 190.094C114.57 190.168 114.53 190.26 114.53 190.37C114.53 190.449 114.554 190.525 114.601 190.6L115.254 191.665L113.948 191.618C113.866 191.618 113.793 191.637 113.73 191.676C113.671 191.712 113.628 191.757 113.601 191.812C113.573 191.867 113.56 191.927 113.56 191.994C113.56 192.096 113.593 192.184 113.66 192.259C113.73 192.333 113.826 192.371 113.948 192.371L115.272 192.329L114.601 193.406C114.585 193.43 114.572 193.455 114.56 193.483C114.552 193.506 114.546 193.53 114.542 193.553C114.538 193.573 114.536 193.595 114.536 193.618C114.536 193.728 114.576 193.822 114.654 193.901C114.736 193.975 114.829 194.012 114.931 194.012C114.997 194.012 115.06 193.995 115.119 193.959C115.178 193.924 115.229 193.867 115.272 193.789Z" fill="#FF007A"/>
<path d="M128.246 193.789L128.864 192.665L129.493 193.789C129.521 193.84 129.552 193.883 129.588 193.918C129.627 193.95 129.666 193.973 129.705 193.989C129.744 194.005 129.784 194.012 129.823 194.012C129.925 194.012 130.015 193.973 130.094 193.895C130.172 193.816 130.211 193.722 130.211 193.612C130.211 193.573 130.205 193.534 130.194 193.495C130.182 193.451 130.164 193.41 130.141 193.371L129.493 192.329L130.829 192.371C130.955 192.371 131.051 192.333 131.117 192.259C131.188 192.184 131.223 192.096 131.223 191.994C131.223 191.892 131.188 191.804 131.117 191.729C131.051 191.655 130.955 191.618 130.829 191.618L129.505 191.665L130.17 190.582C130.19 190.547 130.203 190.511 130.211 190.476C130.223 190.441 130.229 190.405 130.229 190.37C130.229 190.299 130.211 190.233 130.176 190.17C130.141 190.107 130.094 190.058 130.035 190.023C129.98 189.988 129.919 189.97 129.852 189.97C129.79 189.97 129.727 189.99 129.664 190.029C129.601 190.068 129.546 190.127 129.499 190.205L128.864 191.353L128.228 190.188C128.22 190.172 128.211 190.156 128.199 190.141C128.187 190.125 128.175 190.111 128.164 190.099C128.156 190.088 128.146 190.078 128.134 190.07C128.122 190.058 128.111 190.048 128.099 190.041C128.087 190.029 128.073 190.021 128.058 190.017C128.046 190.009 128.032 190.003 128.016 189.999C128.005 189.992 127.993 189.988 127.981 189.988C127.969 189.984 127.956 189.982 127.94 189.982C127.928 189.978 127.914 189.976 127.899 189.976C127.797 189.976 127.705 190.015 127.622 190.094C127.544 190.168 127.505 190.26 127.505 190.37C127.505 190.449 127.528 190.525 127.575 190.6L128.228 191.665L126.922 191.618C126.84 191.618 126.767 191.637 126.704 191.676C126.645 191.712 126.602 191.757 126.575 191.812C126.547 191.867 126.534 191.927 126.534 191.994C126.534 192.096 126.567 192.184 126.634 192.259C126.704 192.333 126.8 192.371 126.922 192.371L128.246 192.329L127.575 193.406C127.559 193.43 127.546 193.455 127.534 193.483C127.526 193.506 127.52 193.53 127.516 193.553C127.512 193.573 127.51 193.595 127.51 193.618C127.51 193.728 127.55 193.822 127.628 193.901C127.711 193.975 127.803 194.012 127.905 194.012C127.971 194.012 128.034 193.995 128.093 193.959C128.152 193.924 128.203 193.867 128.246 193.789Z" fill="#FF007A"/>
<path d="M141.221 193.789L141.838 192.665L142.468 193.789C142.495 193.84 142.527 193.883 142.562 193.918C142.601 193.95 142.641 193.973 142.68 193.989C142.719 194.005 142.758 194.012 142.798 194.012C142.9 194.012 142.99 193.973 143.068 193.895C143.147 193.816 143.186 193.722 143.186 193.612C143.186 193.573 143.18 193.534 143.168 193.495C143.156 193.451 143.139 193.41 143.115 193.371L142.468 192.329L143.804 192.371C143.929 192.371 144.025 192.333 144.092 192.259C144.163 192.184 144.198 192.096 144.198 191.994C144.198 191.892 144.163 191.804 144.092 191.729C144.025 191.655 143.929 191.618 143.804 191.618L142.48 191.665L143.145 190.582C143.164 190.547 143.178 190.511 143.186 190.476C143.198 190.441 143.204 190.405 143.204 190.37C143.204 190.299 143.186 190.233 143.151 190.17C143.115 190.107 143.068 190.058 143.009 190.023C142.954 189.988 142.894 189.97 142.827 189.97C142.764 189.97 142.701 189.99 142.639 190.029C142.576 190.068 142.521 190.127 142.474 190.205L141.838 191.353L141.203 190.188C141.195 190.172 141.185 190.156 141.174 190.141C141.162 190.125 141.15 190.111 141.138 190.099C141.13 190.088 141.121 190.078 141.109 190.07C141.097 190.058 141.085 190.048 141.073 190.041C141.062 190.029 141.048 190.021 141.032 190.017C141.021 190.009 141.007 190.003 140.991 189.999C140.979 189.992 140.968 189.988 140.956 189.988C140.944 189.984 140.93 189.982 140.915 189.982C140.903 189.978 140.889 189.976 140.873 189.976C140.771 189.976 140.679 190.015 140.597 190.094C140.518 190.168 140.479 190.26 140.479 190.37C140.479 190.449 140.503 190.525 140.55 190.6L141.203 191.665L139.897 191.618C139.814 191.618 139.742 191.637 139.679 191.676C139.62 191.712 139.577 191.757 139.549 191.812C139.522 191.867 139.508 191.927 139.508 191.994C139.508 192.096 139.542 192.184 139.608 192.259C139.679 192.333 139.775 192.371 139.897 192.371L141.221 192.329L140.55 193.406C140.534 193.43 140.52 193.455 140.509 193.483C140.501 193.506 140.495 193.53 140.491 193.553C140.487 193.573 140.485 193.595 140.485 193.618C140.485 193.728 140.524 193.822 140.603 193.901C140.685 193.975 140.777 194.012 140.879 194.012C140.946 194.012 141.009 193.995 141.068 193.959C141.126 193.924 141.177 193.867 141.221 193.789Z" fill="#FF007A"/>
<path d="M60.8956 219.154C60.052 219.154 59.329 218.978 58.7265 218.624C58.1239 218.271 57.658 217.769 57.3286 217.118C57.0072 216.459 56.8466 215.684 56.8466 214.792C56.8466 214.125 56.939 213.527 57.1237 212.996C57.3085 212.458 57.5736 212 57.9191 211.623C58.2645 211.237 58.6863 210.944 59.1844 210.743C59.6905 210.542 60.2609 210.442 60.8956 210.442C61.3776 210.442 61.8395 210.51 62.2814 210.647C62.7313 210.783 63.1169 210.976 63.4383 211.225C63.5668 211.313 63.6512 211.414 63.6913 211.526C63.7315 211.639 63.7355 211.747 63.7034 211.852C63.6793 211.948 63.6271 212.032 63.5467 212.105C63.4744 212.169 63.382 212.205 63.2696 212.213C63.1571 212.213 63.0366 212.169 62.908 212.081C62.6269 211.864 62.3176 211.707 61.9801 211.611C61.6508 211.506 61.2973 211.454 60.9197 211.454C60.3011 211.454 59.7749 211.587 59.3411 211.852C58.9153 212.109 58.5899 212.486 58.3649 212.984C58.148 213.474 58.0396 214.077 58.0396 214.792C58.0396 215.499 58.148 216.106 58.3649 216.612C58.5899 217.11 58.9153 217.491 59.3411 217.756C59.7749 218.014 60.3011 218.142 60.9197 218.142C61.2973 218.142 61.6548 218.09 61.9922 217.985C62.3376 217.881 62.655 217.72 62.9442 217.503C63.0727 217.415 63.1892 217.375 63.2937 217.383C63.4061 217.391 63.4985 217.427 63.5708 217.491C63.6431 217.548 63.6913 217.628 63.7154 217.732C63.7476 217.829 63.7476 217.929 63.7154 218.034C63.6833 218.138 63.611 218.23 63.4985 218.311C63.1691 218.592 62.7755 218.805 62.3176 218.949C61.8677 219.086 61.3937 219.154 60.8956 219.154ZM67.0974 219.154C66.519 219.154 66.0169 219.03 65.5911 218.781C65.1653 218.532 64.8359 218.178 64.6029 217.72C64.37 217.262 64.2535 216.724 64.2535 216.106C64.2535 215.64 64.3177 215.222 64.4463 214.852C64.5829 214.475 64.7757 214.153 65.0247 213.888C65.2738 213.623 65.571 213.422 65.9165 213.286C66.2699 213.141 66.6636 213.069 67.0974 213.069C67.6759 213.069 68.178 213.193 68.6038 213.442C69.0295 213.691 69.3589 214.045 69.5919 214.503C69.8249 214.953 69.9414 215.487 69.9414 216.106C69.9414 216.572 69.8731 216.993 69.7365 217.371C69.608 217.748 69.4192 218.07 69.1701 218.335C68.9211 218.6 68.6198 218.805 68.2663 218.949C67.9209 219.086 67.5312 219.154 67.0974 219.154ZM67.0974 218.287C67.4509 218.287 67.7562 218.202 68.0133 218.034C68.2784 217.865 68.4792 217.62 68.6158 217.299C68.7604 216.977 68.8327 216.58 68.8327 216.106C68.8327 215.399 68.6761 214.86 68.3627 214.491C68.0494 214.121 67.6276 213.936 67.0974 213.936C66.752 213.936 66.4467 214.021 66.1816 214.189C65.9245 214.35 65.7236 214.591 65.579 214.913C65.4344 215.234 65.3621 215.632 65.3621 216.106C65.3621 216.813 65.5188 217.355 65.8321 217.732C66.1535 218.102 66.5752 218.287 67.0974 218.287ZM71.7679 219.13C71.5992 219.13 71.4666 219.082 71.3702 218.986C71.2738 218.889 71.2256 218.749 71.2256 218.564V213.647C71.2256 213.462 71.2738 213.326 71.3702 213.237C71.4666 213.141 71.5992 213.093 71.7679 213.093C71.9366 213.093 72.0651 213.141 72.1535 213.237C72.2499 213.326 72.2981 213.462 72.2981 213.647V214.635L72.1656 214.455C72.3343 213.997 72.6074 213.651 72.985 213.418C73.3706 213.185 73.8085 213.069 74.2985 213.069C74.7725 213.069 75.1621 213.153 75.4674 213.322C75.7727 213.491 76.0017 213.748 76.1543 214.093C76.307 214.439 76.3833 214.876 76.3833 215.407V218.564C76.3833 218.749 76.3351 218.889 76.2387 218.986C76.1503 219.082 76.0177 219.13 75.841 219.13C75.6643 219.13 75.5277 219.082 75.4313 218.986C75.3349 218.889 75.2867 218.749 75.2867 218.564V215.467C75.2867 214.945 75.1863 214.563 74.9854 214.322C74.7846 214.081 74.4632 213.961 74.0214 213.961C73.5072 213.961 73.0935 214.121 72.7801 214.443C72.4749 214.756 72.3222 215.182 72.3222 215.72V218.564C72.3222 218.941 72.1374 219.13 71.7679 219.13ZM78.893 219.13C78.7163 219.13 78.5797 219.082 78.4833 218.986C78.3869 218.889 78.3387 218.749 78.3387 218.564V214.021H77.6156C77.471 214.021 77.3586 213.985 77.2782 213.912C77.1979 213.832 77.1577 213.728 77.1577 213.599C77.1577 213.462 77.1979 213.358 77.2782 213.286C77.3586 213.213 77.471 213.177 77.6156 213.177H78.6399L78.3387 213.466V213.021C78.3387 212.249 78.5235 211.663 78.893 211.261C79.2706 210.86 79.8289 210.623 80.568 210.55L80.9175 210.526C81.0541 210.51 81.1625 210.53 81.2429 210.586C81.3232 210.635 81.3754 210.699 81.3995 210.779C81.4317 210.86 81.4357 210.944 81.4116 211.032C81.3955 211.121 81.3594 211.197 81.3031 211.261C81.2469 211.325 81.1746 211.358 81.0862 211.358L80.7488 211.382C80.2909 211.414 79.9575 211.554 79.7486 211.803C79.5397 212.053 79.4353 212.41 79.4353 212.876V213.358L79.2786 213.177H82.5685C82.7452 213.177 82.8778 213.229 82.9661 213.334C83.0625 213.43 83.1107 213.575 83.1107 213.768V218.516C83.1107 218.7 83.0665 218.845 82.9782 218.949C82.8898 219.054 82.7532 219.106 82.5685 219.106C82.3917 219.106 82.2551 219.054 82.1587 218.949C82.0623 218.845 82.0141 218.7 82.0141 218.516V214.021H79.4353V218.564C79.4353 218.941 79.2545 219.13 78.893 219.13ZM82.5805 211.816C82.3716 211.816 82.2069 211.759 82.0864 211.647C81.9659 211.526 81.9057 211.37 81.9057 211.177C81.9057 210.968 81.9659 210.811 82.0864 210.707C82.2069 210.594 82.3716 210.538 82.5805 210.538C82.8055 210.538 82.9742 210.594 83.0866 210.707C83.2071 210.811 83.2674 210.968 83.2674 211.177C83.2674 211.37 83.2071 211.526 83.0866 211.647C82.9742 211.759 82.8055 211.816 82.5805 211.816ZM85.3198 219.13C85.135 219.13 84.9944 219.082 84.898 218.986C84.8016 218.889 84.7534 218.749 84.7534 218.564V213.647C84.7534 213.462 84.8016 213.326 84.898 213.237C84.9944 213.141 85.127 213.093 85.2957 213.093C85.4644 213.093 85.5929 213.141 85.6813 213.237C85.7777 213.326 85.8259 213.462 85.8259 213.647V214.575H85.7054C85.8339 214.093 86.0749 213.728 86.4284 213.479C86.7819 213.229 87.2278 213.089 87.766 213.057C87.8946 213.049 87.999 213.081 88.0794 213.153C88.1597 213.217 88.2039 213.33 88.2119 213.491C88.22 213.643 88.1838 213.768 88.1035 213.864C88.0231 213.952 87.8986 214.005 87.7299 214.021L87.513 214.033C86.9828 214.089 86.573 214.262 86.2838 214.551C86.0026 214.84 85.862 215.238 85.862 215.744V218.564C85.862 218.749 85.8138 218.889 85.7174 218.986C85.6291 219.082 85.4965 219.13 85.3198 219.13ZM89.6006 219.13C89.4319 219.13 89.2993 219.082 89.2029 218.986C89.1065 218.889 89.0583 218.749 89.0583 218.564V213.647C89.0583 213.462 89.1065 213.326 89.2029 213.237C89.2993 213.141 89.4319 213.093 89.6006 213.093C89.7693 213.093 89.8978 213.141 89.9862 213.237C90.0826 213.326 90.1308 213.462 90.1308 213.647V214.672L89.9982 214.455C90.1509 214.013 90.3959 213.671 90.7333 213.43C91.0788 213.189 91.4885 213.069 91.9625 213.069C92.4606 213.069 92.8623 213.189 93.1676 213.43C93.4728 213.663 93.6777 214.021 93.7821 214.503H93.6134C93.758 214.061 94.0151 213.711 94.3847 213.454C94.7623 213.197 95.2001 213.069 95.6982 213.069C96.14 213.069 96.5016 213.157 96.7827 213.334C97.072 213.503 97.2889 213.76 97.4335 214.105C97.5781 214.443 97.6504 214.876 97.6504 215.407V218.564C97.6504 218.749 97.6022 218.889 97.5058 218.986C97.4094 219.082 97.2768 219.13 97.1081 219.13C96.9314 219.13 96.7948 219.082 96.6984 218.986C96.602 218.889 96.5538 218.749 96.5538 218.564V215.455C96.5538 214.941 96.4654 214.563 96.2887 214.322C96.1119 214.081 95.8147 213.961 95.3969 213.961C94.939 213.961 94.5735 214.121 94.3003 214.443C94.0352 214.756 93.9026 215.19 93.9026 215.744V218.564C93.9026 218.749 93.8544 218.889 93.758 218.986C93.6697 219.082 93.5371 219.13 93.3604 219.13C93.1836 219.13 93.047 219.082 92.9506 218.986C92.8542 218.889 92.806 218.749 92.806 218.564V215.455C92.806 214.941 92.7177 214.563 92.5409 214.322C92.3642 214.081 92.0669 213.961 91.6492 213.961C91.1912 213.961 90.8257 214.121 90.5526 214.443C90.2874 214.756 90.1549 215.19 90.1549 215.744V218.564C90.1549 218.941 89.9701 219.13 89.6006 219.13ZM103.014 219.13C102.837 219.13 102.7 219.082 102.604 218.986C102.508 218.881 102.459 218.737 102.459 218.552V211.117C102.459 210.932 102.508 210.791 102.604 210.695C102.708 210.598 102.849 210.55 103.026 210.55H105.894C106.81 210.55 107.513 210.775 108.003 211.225C108.501 211.675 108.75 212.306 108.75 213.117C108.75 213.936 108.501 214.571 108.003 215.021C107.513 215.471 106.81 215.696 105.894 215.696H103.58V218.552C103.58 218.737 103.532 218.881 103.436 218.986C103.347 219.082 103.207 219.13 103.014 219.13ZM103.58 214.792H105.749C106.376 214.792 106.846 214.651 107.159 214.37C107.481 214.081 107.641 213.663 107.641 213.117C107.641 212.571 107.481 212.161 107.159 211.888C106.846 211.607 106.376 211.466 105.749 211.466H103.58V214.792ZM111.441 219.154C111.039 219.154 110.674 219.074 110.344 218.913C110.023 218.753 109.77 218.536 109.585 218.263C109.408 217.989 109.32 217.684 109.32 217.347C109.32 216.913 109.428 216.572 109.645 216.322C109.862 216.073 110.228 215.897 110.742 215.792C111.256 215.68 111.947 215.624 112.815 215.624H113.381V216.322H112.839C112.22 216.322 111.73 216.351 111.369 216.407C111.015 216.463 110.766 216.563 110.621 216.708C110.477 216.845 110.404 217.037 110.404 217.287C110.404 217.6 110.513 217.857 110.73 218.058C110.955 218.259 111.26 218.359 111.646 218.359C111.951 218.359 112.22 218.287 112.453 218.142C112.686 217.989 112.871 217.789 113.007 217.54C113.144 217.282 113.212 216.989 113.212 216.66V215.274C113.212 214.8 113.116 214.459 112.923 214.25C112.73 214.033 112.405 213.924 111.947 213.924C111.682 213.924 111.409 213.961 111.128 214.033C110.846 214.105 110.553 214.218 110.248 214.37C110.127 214.426 110.023 214.447 109.935 214.431C109.846 214.406 109.774 214.358 109.718 214.286C109.669 214.206 109.641 214.121 109.633 214.033C109.633 213.936 109.653 213.844 109.693 213.756C109.742 213.667 109.822 213.603 109.935 213.563C110.288 213.386 110.637 213.262 110.983 213.189C111.336 213.109 111.666 213.069 111.971 213.069C112.493 213.069 112.923 213.153 113.26 213.322C113.598 213.483 113.851 213.736 114.02 214.081C114.188 214.418 114.273 214.852 114.273 215.383V218.564C114.273 218.749 114.229 218.889 114.14 218.986C114.052 219.082 113.923 219.13 113.755 219.13C113.594 219.13 113.465 219.082 113.369 218.986C113.281 218.889 113.236 218.749 113.236 218.564V217.708H113.345C113.281 218.006 113.16 218.263 112.983 218.48C112.807 218.696 112.586 218.865 112.321 218.986C112.063 219.098 111.77 219.154 111.441 219.154ZM117.902 219.154C117.541 219.154 117.175 219.114 116.806 219.034C116.444 218.945 116.103 218.797 115.782 218.588C115.693 218.532 115.629 218.463 115.589 218.383C115.557 218.295 115.545 218.21 115.553 218.13C115.569 218.042 115.605 217.965 115.661 217.901C115.717 217.837 115.786 217.801 115.866 217.793C115.954 217.777 116.047 217.797 116.143 217.853C116.456 218.03 116.758 218.154 117.047 218.226C117.344 218.299 117.637 218.335 117.927 218.335C118.368 218.335 118.702 218.255 118.927 218.094C119.152 217.933 119.264 217.72 119.264 217.455C119.264 217.23 119.188 217.058 119.035 216.937C118.891 216.808 118.662 216.712 118.348 216.648L117.228 216.419C116.729 216.306 116.352 216.122 116.095 215.865C115.846 215.599 115.721 215.262 115.721 214.852C115.721 214.491 115.818 214.177 116.01 213.912C116.211 213.639 116.488 213.43 116.842 213.286C117.195 213.141 117.601 213.069 118.059 213.069C118.413 213.069 118.746 213.117 119.059 213.213C119.381 213.302 119.67 213.438 119.927 213.623C120.023 213.679 120.084 213.752 120.108 213.84C120.14 213.92 120.144 214.005 120.12 214.093C120.104 214.173 120.068 214.242 120.011 214.298C119.955 214.354 119.883 214.39 119.794 214.406C119.706 214.414 119.61 214.39 119.505 214.334C119.272 214.173 119.031 214.061 118.782 213.997C118.541 213.924 118.3 213.888 118.059 213.888C117.625 213.888 117.296 213.973 117.071 214.141C116.854 214.31 116.746 214.531 116.746 214.804C116.746 215.013 116.81 215.186 116.938 215.322C117.075 215.459 117.288 215.559 117.577 215.624L118.698 215.852C119.22 215.965 119.614 216.146 119.879 216.395C120.144 216.636 120.276 216.965 120.276 217.383C120.276 217.929 120.059 218.363 119.626 218.684C119.2 218.998 118.625 219.154 117.902 219.154ZM123.607 219.154C123.246 219.154 122.88 219.114 122.511 219.034C122.149 218.945 121.808 218.797 121.486 218.588C121.398 218.532 121.334 218.463 121.293 218.383C121.261 218.295 121.249 218.21 121.257 218.13C121.273 218.042 121.31 217.965 121.366 217.901C121.422 217.837 121.49 217.801 121.571 217.793C121.659 217.777 121.751 217.797 121.848 217.853C122.161 218.03 122.462 218.154 122.752 218.226C123.049 218.299 123.342 218.335 123.631 218.335C124.073 218.335 124.407 218.255 124.631 218.094C124.856 217.933 124.969 217.72 124.969 217.455C124.969 217.23 124.893 217.058 124.74 216.937C124.595 216.808 124.366 216.712 124.053 216.648L122.932 216.419C122.434 216.306 122.057 216.122 121.8 215.865C121.551 215.599 121.426 215.262 121.426 214.852C121.426 214.491 121.522 214.177 121.715 213.912C121.916 213.639 122.193 213.43 122.547 213.286C122.9 213.141 123.306 213.069 123.764 213.069C124.117 213.069 124.451 213.117 124.764 213.213C125.085 213.302 125.375 213.438 125.632 213.623C125.728 213.679 125.788 213.752 125.812 213.84C125.845 213.92 125.849 214.005 125.824 214.093C125.808 214.173 125.772 214.242 125.716 214.298C125.66 214.354 125.587 214.39 125.499 214.406C125.411 214.414 125.314 214.39 125.21 214.334C124.977 214.173 124.736 214.061 124.487 213.997C124.246 213.924 124.005 213.888 123.764 213.888C123.33 213.888 123.001 213.973 122.776 214.141C122.559 214.31 122.45 214.531 122.45 214.804C122.45 215.013 122.515 215.186 122.643 215.322C122.78 215.459 122.993 215.559 123.282 215.624L124.403 215.852C124.925 215.965 125.318 216.146 125.583 216.395C125.849 216.636 125.981 216.965 125.981 217.383C125.981 217.929 125.764 218.363 125.33 218.684C124.905 218.998 124.33 219.154 123.607 219.154ZM129.254 219.13C129.102 219.13 128.969 219.094 128.857 219.022C128.744 218.941 128.656 218.813 128.592 218.636L126.796 213.852C126.74 213.699 126.724 213.567 126.748 213.454C126.772 213.342 126.828 213.254 126.917 213.189C127.005 213.125 127.122 213.093 127.266 213.093C127.403 213.093 127.511 213.125 127.591 213.189C127.672 213.254 127.74 213.37 127.796 213.539L129.435 218.166H129.146L130.833 213.515C130.889 213.37 130.962 213.266 131.05 213.201C131.146 213.129 131.263 213.093 131.399 213.093C131.544 213.093 131.665 213.129 131.761 213.201C131.857 213.266 131.926 213.37 131.966 213.515L133.629 218.166H133.352L135.015 213.515C135.071 213.354 135.143 213.246 135.232 213.189C135.32 213.125 135.428 213.093 135.557 213.093C135.702 213.093 135.81 213.129 135.882 213.201C135.955 213.274 135.995 213.37 136.003 213.491C136.019 213.603 136.003 213.724 135.955 213.852L134.159 218.636C134.103 218.805 134.014 218.929 133.894 219.01C133.782 219.09 133.649 219.13 133.496 219.13C133.344 219.13 133.207 219.09 133.087 219.01C132.974 218.929 132.886 218.805 132.821 218.636L131.098 213.912H131.653L129.929 218.636C129.865 218.805 129.777 218.929 129.664 219.01C129.552 219.09 129.415 219.13 129.254 219.13ZM139.617 219.154C139.039 219.154 138.537 219.03 138.111 218.781C137.685 218.532 137.356 218.178 137.123 217.72C136.89 217.262 136.773 216.724 136.773 216.106C136.773 215.64 136.838 215.222 136.966 214.852C137.103 214.475 137.296 214.153 137.545 213.888C137.794 213.623 138.091 213.422 138.436 213.286C138.79 213.141 139.183 213.069 139.617 213.069C140.196 213.069 140.698 213.193 141.124 213.442C141.549 213.691 141.879 214.045 142.112 214.503C142.345 214.953 142.461 215.487 142.461 216.106C142.461 216.572 142.393 216.993 142.256 217.371C142.128 217.748 141.939 218.07 141.69 218.335C141.441 218.6 141.14 218.805 140.786 218.949C140.441 219.086 140.051 219.154 139.617 219.154ZM139.617 218.287C139.971 218.287 140.276 218.202 140.533 218.034C140.798 217.865 140.999 217.62 141.136 217.299C141.28 216.977 141.353 216.58 141.353 216.106C141.353 215.399 141.196 214.86 140.883 214.491C140.569 214.121 140.148 213.936 139.617 213.936C139.272 213.936 138.967 214.021 138.701 214.189C138.444 214.35 138.244 214.591 138.099 214.913C137.954 215.234 137.882 215.632 137.882 216.106C137.882 216.813 138.039 217.355 138.352 217.732C138.673 218.102 139.095 218.287 139.617 218.287ZM144.312 219.13C144.127 219.13 143.986 219.082 143.89 218.986C143.794 218.889 143.745 218.749 143.745 218.564V213.647C143.745 213.462 143.794 213.326 143.89 213.237C143.986 213.141 144.119 213.093 144.288 213.093C144.456 213.093 144.585 213.141 144.673 213.237C144.77 213.326 144.818 213.462 144.818 213.647V214.575H144.697C144.826 214.093 145.067 213.728 145.421 213.479C145.774 213.229 146.22 213.089 146.758 213.057C146.887 213.049 146.991 213.081 147.071 213.153C147.152 213.217 147.196 213.33 147.204 213.491C147.212 213.643 147.176 213.768 147.096 213.864C147.015 213.952 146.891 214.005 146.722 214.021L146.505 214.033C145.975 214.089 145.565 214.262 145.276 214.551C144.995 214.84 144.854 215.238 144.854 215.744V218.564C144.854 218.749 144.806 218.889 144.71 218.986C144.621 219.082 144.489 219.13 144.312 219.13ZM150.185 219.154C149.671 219.154 149.217 219.034 148.824 218.793C148.438 218.544 148.137 218.19 147.92 217.732C147.703 217.266 147.594 216.724 147.594 216.106C147.594 215.479 147.699 214.941 147.908 214.491C148.125 214.033 148.426 213.683 148.812 213.442C149.205 213.193 149.663 213.069 150.185 213.069C150.708 213.069 151.157 213.201 151.535 213.466C151.913 213.724 152.166 214.069 152.294 214.503H152.162V211.02C152.162 210.835 152.206 210.699 152.294 210.61C152.391 210.514 152.527 210.466 152.704 210.466C152.881 210.466 153.017 210.514 153.114 210.61C153.21 210.699 153.258 210.835 153.258 211.02V218.564C153.258 218.749 153.21 218.889 153.114 218.986C153.017 219.082 152.881 219.13 152.704 219.13C152.535 219.13 152.403 219.082 152.306 218.986C152.21 218.889 152.162 218.749 152.162 218.564V217.467L152.294 217.684C152.174 218.134 151.921 218.492 151.535 218.757C151.157 219.022 150.708 219.154 150.185 219.154ZM150.438 218.287C150.792 218.287 151.097 218.202 151.354 218.034C151.619 217.865 151.82 217.62 151.957 217.299C152.101 216.977 152.174 216.58 152.174 216.106C152.174 215.399 152.017 214.86 151.704 214.491C151.39 214.121 150.969 213.936 150.438 213.936C150.093 213.936 149.788 214.021 149.523 214.189C149.265 214.35 149.065 214.591 148.92 214.913C148.775 215.234 148.703 215.632 148.703 216.106C148.703 216.813 148.86 217.355 149.173 217.732C149.494 218.102 149.916 218.287 150.438 218.287Z" fill="#393333"/>
<rect x="55.6362" y="234.096" width="94.5869" height="16.5696" rx="8.28481" fill="#F3F1FF"/>
<path d="M63.3739 243.941L63.9917 242.817L64.6213 243.941C64.6488 243.992 64.6802 244.035 64.7155 244.07C64.7547 244.101 64.7939 244.125 64.8332 244.141C64.8724 244.156 64.9116 244.164 64.9508 244.164C65.0528 244.164 65.143 244.125 65.2215 244.047C65.3 243.968 65.3392 243.874 65.3392 243.764C65.3392 243.725 65.3333 243.686 65.3215 243.646C65.3098 243.603 65.2921 243.562 65.2686 243.523L64.6213 242.481L65.957 242.523C66.0825 242.523 66.1786 242.485 66.2453 242.411C66.3159 242.336 66.3512 242.248 66.3512 242.146C66.3512 242.044 66.3159 241.956 66.2453 241.881C66.1786 241.807 66.0825 241.769 65.957 241.769L64.6331 241.816L65.298 240.734C65.3176 240.698 65.3313 240.663 65.3392 240.628C65.351 240.593 65.3568 240.557 65.3568 240.522C65.3568 240.451 65.3392 240.385 65.3039 240.322C65.2686 240.259 65.2215 240.21 65.1627 240.175C65.1077 240.139 65.0469 240.122 64.9803 240.122C64.9175 240.122 64.8547 240.141 64.792 240.181C64.7292 240.22 64.6743 240.279 64.6272 240.357L63.9917 241.505L63.3562 240.34C63.3484 240.324 63.3386 240.308 63.3268 240.292C63.3151 240.277 63.3033 240.263 63.2915 240.251C63.2837 240.24 63.2739 240.23 63.2621 240.222C63.2503 240.21 63.2386 240.2 63.2268 240.192C63.215 240.181 63.2013 240.173 63.1856 240.169C63.1738 240.161 63.1601 240.155 63.1444 240.151C63.1326 240.143 63.1209 240.139 63.1091 240.139C63.0973 240.136 63.0836 240.134 63.0679 240.134C63.0562 240.13 63.0424 240.128 63.0267 240.128C62.9247 240.128 62.8326 240.167 62.7502 240.245C62.6717 240.32 62.6325 240.412 62.6325 240.522C62.6325 240.6 62.656 240.677 62.7031 240.751L63.3562 241.816L62.05 241.769C61.9676 241.769 61.895 241.789 61.8323 241.828C61.7734 241.864 61.7303 241.909 61.7028 241.964C61.6754 242.018 61.6616 242.079 61.6616 242.146C61.6616 242.248 61.695 242.336 61.7617 242.411C61.8323 242.485 61.9284 242.523 62.05 242.523L63.3739 242.481L62.7031 243.558C62.6874 243.582 62.6737 243.607 62.6619 243.635C62.6541 243.658 62.6482 243.682 62.6443 243.705C62.6403 243.725 62.6384 243.746 62.6384 243.77C62.6384 243.88 62.6776 243.974 62.7561 244.052C62.8384 244.127 62.9306 244.164 63.0326 244.164C63.0993 244.164 63.1621 244.147 63.2209 244.111C63.2797 244.076 63.3307 244.019 63.3739 243.941Z" fill="#FF007A"/>
<path d="M76.3485 243.941L76.9663 242.817L77.5959 243.941C77.6234 243.992 77.6548 244.035 77.6901 244.07C77.7293 244.101 77.7685 244.125 77.8078 244.141C77.847 244.156 77.8862 244.164 77.9254 244.164C78.0274 244.164 78.1177 244.125 78.1961 244.047C78.2746 243.968 78.3138 243.874 78.3138 243.764C78.3138 243.725 78.3079 243.686 78.2961 243.646C78.2844 243.603 78.2667 243.562 78.2432 243.523L77.5959 242.481L78.9316 242.523C79.0571 242.523 79.1533 242.485 79.2199 242.411C79.2906 242.336 79.3259 242.248 79.3259 242.146C79.3259 242.044 79.2906 241.956 79.2199 241.881C79.1533 241.807 79.0571 241.769 78.9316 241.769L77.6077 241.816L78.2726 240.734C78.2922 240.698 78.3059 240.663 78.3138 240.628C78.3256 240.593 78.3314 240.557 78.3314 240.522C78.3314 240.451 78.3138 240.385 78.2785 240.322C78.2432 240.259 78.1961 240.21 78.1373 240.175C78.0824 240.139 78.0215 240.122 77.9549 240.122C77.8921 240.122 77.8293 240.141 77.7666 240.181C77.7038 240.22 77.6489 240.279 77.6018 240.357L76.9663 241.505L76.3309 240.34C76.323 240.324 76.3132 240.308 76.3014 240.292C76.2897 240.277 76.2779 240.263 76.2661 240.251C76.2583 240.24 76.2485 240.23 76.2367 240.222C76.2249 240.21 76.2132 240.2 76.2014 240.192C76.1896 240.181 76.1759 240.173 76.1602 240.169C76.1484 240.161 76.1347 240.155 76.119 240.151C76.1073 240.143 76.0955 240.139 76.0837 240.139C76.072 240.136 76.0582 240.134 76.0425 240.134C76.0308 240.13 76.017 240.128 76.0013 240.128C75.8994 240.128 75.8072 240.167 75.7248 240.245C75.6463 240.32 75.6071 240.412 75.6071 240.522C75.6071 240.6 75.6306 240.677 75.6777 240.751L76.3309 241.816L75.0246 241.769C74.9422 241.769 74.8696 241.789 74.8069 241.828C74.748 241.864 74.7049 241.909 74.6774 241.964C74.65 242.018 74.6362 242.079 74.6362 242.146C74.6362 242.248 74.6696 242.336 74.7363 242.411C74.8069 242.485 74.903 242.523 75.0246 242.523L76.3485 242.481L75.6777 243.558C75.662 243.582 75.6483 243.607 75.6365 243.635C75.6287 243.658 75.6228 243.682 75.6189 243.705C75.615 243.725 75.613 243.746 75.613 243.77C75.613 243.88 75.6522 243.974 75.7307 244.052C75.8131 244.127 75.9052 244.164 76.0072 244.164C76.0739 244.164 76.1367 244.147 76.1955 244.111C76.2544 244.076 76.3054 244.019 76.3485 243.941Z" fill="#FF007A"/>
<path d="M89.3231 243.941L89.9409 242.817L90.5705 243.941C90.598 243.992 90.6294 244.035 90.6647 244.07C90.7039 244.101 90.7431 244.125 90.7824 244.141C90.8216 244.156 90.8608 244.164 90.9001 244.164C91.002 244.164 91.0923 244.125 91.1707 244.047C91.2492 243.968 91.2884 243.874 91.2884 243.764C91.2884 243.725 91.2825 243.686 91.2707 243.646C91.259 243.603 91.2413 243.562 91.2178 243.523L90.5705 242.481L91.9062 242.523C92.0318 242.523 92.1279 242.485 92.1946 242.411C92.2652 242.336 92.3005 242.248 92.3005 242.146C92.3005 242.044 92.2652 241.956 92.1946 241.881C92.1279 241.807 92.0318 241.769 91.9062 241.769L90.5823 241.816L91.2472 240.734C91.2668 240.698 91.2806 240.663 91.2884 240.628C91.3002 240.593 91.3061 240.557 91.3061 240.522C91.3061 240.451 91.2884 240.385 91.2531 240.322C91.2178 240.259 91.1707 240.21 91.1119 240.175C91.057 240.139 90.9962 240.122 90.9295 240.122C90.8667 240.122 90.8039 240.141 90.7412 240.181C90.6784 240.22 90.6235 240.279 90.5764 240.357L89.9409 241.505L89.3055 240.34C89.2976 240.324 89.2878 240.308 89.276 240.292C89.2643 240.277 89.2525 240.263 89.2407 240.251C89.2329 240.24 89.2231 240.23 89.2113 240.222C89.1995 240.21 89.1878 240.2 89.176 240.192C89.1642 240.181 89.1505 240.173 89.1348 240.169C89.1231 240.161 89.1093 240.155 89.0936 240.151C89.0819 240.143 89.0701 240.139 89.0583 240.139C89.0466 240.136 89.0328 240.134 89.0171 240.134C89.0054 240.13 88.9916 240.128 88.976 240.128C88.874 240.128 88.7818 240.167 88.6994 240.245C88.6209 240.32 88.5817 240.412 88.5817 240.522C88.5817 240.6 88.6053 240.677 88.6523 240.751L89.3055 241.816L87.9992 241.769C87.9168 241.769 87.8442 241.789 87.7815 241.828C87.7226 241.864 87.6795 241.909 87.652 241.964C87.6246 242.018 87.6108 242.079 87.6108 242.146C87.6108 242.248 87.6442 242.336 87.7109 242.411C87.7815 242.485 87.8776 242.523 87.9992 242.523L89.3231 242.481L88.6523 243.558C88.6366 243.582 88.6229 243.607 88.6111 243.635C88.6033 243.658 88.5974 243.682 88.5935 243.705C88.5896 243.725 88.5876 243.746 88.5876 243.77C88.5876 243.88 88.6268 243.974 88.7053 244.052C88.7877 244.127 88.8798 244.164 88.9818 244.164C89.0485 244.164 89.1113 244.147 89.1701 244.111C89.229 244.076 89.28 244.019 89.3231 243.941Z" fill="#FF007A"/>
<path d="M102.297 243.941L102.915 242.817L103.545 243.941C103.572 243.992 103.604 244.035 103.639 244.07C103.678 244.101 103.717 244.125 103.756 244.141C103.796 244.156 103.835 244.164 103.874 244.164C103.976 244.164 104.066 244.125 104.145 244.047C104.223 243.968 104.263 243.874 104.263 243.764C104.263 243.725 104.257 243.686 104.245 243.646C104.233 243.603 104.215 243.562 104.192 243.523L103.545 242.481L104.88 242.523C105.006 242.523 105.102 242.485 105.169 242.411C105.239 242.336 105.275 242.248 105.275 242.146C105.275 242.044 105.239 241.956 105.169 241.881C105.102 241.807 105.006 241.769 104.88 241.769L103.556 241.816L104.221 240.734C104.241 240.698 104.255 240.663 104.263 240.628C104.274 240.593 104.28 240.557 104.28 240.522C104.28 240.451 104.263 240.385 104.227 240.322C104.192 240.259 104.145 240.21 104.086 240.175C104.031 240.139 103.97 240.122 103.904 240.122C103.841 240.122 103.778 240.141 103.715 240.181C103.653 240.22 103.598 240.279 103.551 240.357L102.915 241.505L102.28 240.34C102.272 240.324 102.262 240.308 102.25 240.292C102.238 240.277 102.227 240.263 102.215 240.251C102.207 240.24 102.197 240.23 102.185 240.222C102.174 240.21 102.162 240.2 102.15 240.192C102.138 240.181 102.125 240.173 102.109 240.169C102.097 240.161 102.083 240.155 102.068 240.151C102.056 240.143 102.044 240.139 102.032 240.139C102.021 240.136 102.007 240.134 101.991 240.134C101.979 240.13 101.966 240.128 101.95 240.128C101.848 240.128 101.756 240.167 101.674 240.245C101.595 240.32 101.556 240.412 101.556 240.522C101.556 240.6 101.579 240.677 101.626 240.751L102.28 241.816L100.973 241.769C100.891 241.769 100.818 241.789 100.756 241.828C100.697 241.864 100.654 241.909 100.626 241.964C100.599 242.018 100.585 242.079 100.585 242.146C100.585 242.248 100.618 242.336 100.685 242.411C100.756 242.485 100.852 242.523 100.973 242.523L102.297 242.481L101.626 243.558C101.611 243.582 101.597 243.607 101.585 243.635C101.577 243.658 101.572 243.682 101.568 243.705C101.564 243.725 101.562 243.746 101.562 243.77C101.562 243.88 101.601 243.974 101.679 244.052C101.762 244.127 101.854 244.164 101.956 244.164C102.023 244.164 102.085 244.147 102.144 244.111C102.203 244.076 102.254 244.019 102.297 243.941Z" fill="#FF007A"/>
<path d="M115.272 243.941L115.89 242.817L116.519 243.941C116.547 243.992 116.578 244.035 116.613 244.07C116.653 244.101 116.692 244.125 116.731 244.141C116.77 244.156 116.81 244.164 116.849 244.164C116.951 244.164 117.041 244.125 117.119 244.047C117.198 243.968 117.237 243.874 117.237 243.764C117.237 243.725 117.231 243.686 117.219 243.646C117.208 243.603 117.19 243.562 117.167 243.523L116.519 242.481L117.855 242.523C117.98 242.523 118.077 242.485 118.143 242.411C118.214 242.336 118.249 242.248 118.249 242.146C118.249 242.044 118.214 241.956 118.143 241.881C118.077 241.807 117.98 241.769 117.855 241.769L116.531 241.816L117.196 240.734C117.216 240.698 117.229 240.663 117.237 240.628C117.249 240.593 117.255 240.557 117.255 240.522C117.255 240.451 117.237 240.385 117.202 240.322C117.167 240.259 117.119 240.21 117.061 240.175C117.006 240.139 116.945 240.122 116.878 240.122C116.815 240.122 116.753 240.141 116.69 240.181C116.627 240.22 116.572 240.279 116.525 240.357L115.89 241.505L115.254 240.34C115.246 240.324 115.237 240.308 115.225 240.292C115.213 240.277 115.201 240.263 115.189 240.251C115.182 240.24 115.172 240.23 115.16 240.222C115.148 240.21 115.137 240.2 115.125 240.192C115.113 240.181 115.099 240.173 115.084 240.169C115.072 240.161 115.058 240.155 115.042 240.151C115.031 240.143 115.019 240.139 115.007 240.139C114.995 240.136 114.982 240.134 114.966 240.134C114.954 240.13 114.94 240.128 114.925 240.128C114.823 240.128 114.731 240.167 114.648 240.245C114.57 240.32 114.53 240.412 114.53 240.522C114.53 240.6 114.554 240.677 114.601 240.751L115.254 241.816L113.948 241.769C113.866 241.769 113.793 241.789 113.73 241.828C113.671 241.864 113.628 241.909 113.601 241.964C113.573 242.018 113.56 242.079 113.56 242.146C113.56 242.248 113.593 242.336 113.66 242.411C113.73 242.485 113.826 242.523 113.948 242.523L115.272 242.481L114.601 243.558C114.585 243.582 114.572 243.607 114.56 243.635C114.552 243.658 114.546 243.682 114.542 243.705C114.538 243.725 114.536 243.746 114.536 243.77C114.536 243.88 114.576 243.974 114.654 244.052C114.736 244.127 114.829 244.164 114.931 244.164C114.997 244.164 115.06 244.147 115.119 244.111C115.178 244.076 115.229 244.019 115.272 243.941Z" fill="#FF007A"/>
<path d="M128.246 243.941L128.864 242.817L129.493 243.941C129.521 243.992 129.552 244.035 129.588 244.07C129.627 244.101 129.666 244.125 129.705 244.141C129.744 244.156 129.784 244.164 129.823 244.164C129.925 244.164 130.015 244.125 130.094 244.047C130.172 243.968 130.211 243.874 130.211 243.764C130.211 243.725 130.205 243.686 130.194 243.646C130.182 243.603 130.164 243.562 130.141 243.523L129.493 242.481L130.829 242.523C130.955 242.523 131.051 242.485 131.117 242.411C131.188 242.336 131.223 242.248 131.223 242.146C131.223 242.044 131.188 241.956 131.117 241.881C131.051 241.807 130.955 241.769 130.829 241.769L129.505 241.816L130.17 240.734C130.19 240.698 130.203 240.663 130.211 240.628C130.223 240.593 130.229 240.557 130.229 240.522C130.229 240.451 130.211 240.385 130.176 240.322C130.141 240.259 130.094 240.21 130.035 240.175C129.98 240.139 129.919 240.122 129.852 240.122C129.79 240.122 129.727 240.141 129.664 240.181C129.601 240.22 129.546 240.279 129.499 240.357L128.864 241.505L128.228 240.34C128.22 240.324 128.211 240.308 128.199 240.292C128.187 240.277 128.175 240.263 128.164 240.251C128.156 240.24 128.146 240.23 128.134 240.222C128.122 240.21 128.111 240.2 128.099 240.192C128.087 240.181 128.073 240.173 128.058 240.169C128.046 240.161 128.032 240.155 128.016 240.151C128.005 240.143 127.993 240.139 127.981 240.139C127.969 240.136 127.956 240.134 127.94 240.134C127.928 240.13 127.914 240.128 127.899 240.128C127.797 240.128 127.705 240.167 127.622 240.245C127.544 240.32 127.505 240.412 127.505 240.522C127.505 240.6 127.528 240.677 127.575 240.751L128.228 241.816L126.922 241.769C126.84 241.769 126.767 241.789 126.704 241.828C126.645 241.864 126.602 241.909 126.575 241.964C126.547 242.018 126.534 242.079 126.534 242.146C126.534 242.248 126.567 242.336 126.634 242.411C126.704 242.485 126.8 242.523 126.922 242.523L128.246 242.481L127.575 243.558C127.559 243.582 127.546 243.607 127.534 243.635C127.526 243.658 127.52 243.682 127.516 243.705C127.512 243.725 127.51 243.746 127.51 243.77C127.51 243.88 127.55 243.974 127.628 244.052C127.711 244.127 127.803 244.164 127.905 244.164C127.971 244.164 128.034 244.147 128.093 244.111C128.152 244.076 128.203 244.019 128.246 243.941Z" fill="#FF007A"/>
<path d="M141.221 243.941L141.838 242.817L142.468 243.941C142.495 243.992 142.527 244.035 142.562 244.07C142.601 244.101 142.641 244.125 142.68 244.141C142.719 244.156 142.758 244.164 142.798 244.164C142.9 244.164 142.99 244.125 143.068 244.047C143.147 243.968 143.186 243.874 143.186 243.764C143.186 243.725 143.18 243.686 143.168 243.646C143.156 243.603 143.139 243.562 143.115 243.523L142.468 242.481L143.804 242.523C143.929 242.523 144.025 242.485 144.092 242.411C144.163 242.336 144.198 242.248 144.198 242.146C144.198 242.044 144.163 241.956 144.092 241.881C144.025 241.807 143.929 241.769 143.804 241.769L142.48 241.816L143.145 240.734C143.164 240.698 143.178 240.663 143.186 240.628C143.198 240.593 143.204 240.557 143.204 240.522C143.204 240.451 143.186 240.385 143.151 240.322C143.115 240.259 143.068 240.21 143.009 240.175C142.954 240.139 142.894 240.122 142.827 240.122C142.764 240.122 142.701 240.141 142.639 240.181C142.576 240.22 142.521 240.279 142.474 240.357L141.838 241.505L141.203 240.34C141.195 240.324 141.185 240.308 141.174 240.292C141.162 240.277 141.15 240.263 141.138 240.251C141.13 240.24 141.121 240.23 141.109 240.222C141.097 240.21 141.085 240.2 141.073 240.192C141.062 240.181 141.048 240.173 141.032 240.169C141.021 240.161 141.007 240.155 140.991 240.151C140.979 240.143 140.968 240.139 140.956 240.139C140.944 240.136 140.93 240.134 140.915 240.134C140.903 240.13 140.889 240.128 140.873 240.128C140.771 240.128 140.679 240.167 140.597 240.245C140.518 240.32 140.479 240.412 140.479 240.522C140.479 240.6 140.503 240.677 140.55 240.751L141.203 241.816L139.897 241.769C139.814 241.769 139.742 241.789 139.679 241.828C139.62 241.864 139.577 241.909 139.549 241.964C139.522 242.018 139.508 242.079 139.508 242.146C139.508 242.248 139.542 242.336 139.608 242.411C139.679 242.485 139.775 242.523 139.897 242.523L141.221 242.481L140.55 243.558C140.534 243.582 140.52 243.607 140.509 243.635C140.501 243.658 140.495 243.682 140.491 243.705C140.487 243.725 140.485 243.746 140.485 243.77C140.485 243.88 140.524 243.974 140.603 244.052C140.685 244.127 140.777 244.164 140.879 244.164C140.946 244.164 141.009 244.147 141.068 244.111C141.126 244.076 141.177 244.019 141.221 243.941Z" fill="#FF007A"/>
<g filter="url(#filter1_d_2_87)">
<rect x="66.5479" y="262.717" width="77.1772" height="24.1013" rx="12.0506" fill="#FF007A"/>
<path d="M89.2631 278.267C89.0622 278.267 88.9056 278.211 88.7931 278.099C88.6806 277.986 88.6244 277.829 88.6244 277.629V270.362C88.6244 270.153 88.6766 269.997 88.781 269.892C88.8935 269.78 89.0502 269.723 89.251 269.723C89.4519 269.723 89.6045 269.78 89.7089 269.892C89.8214 269.997 89.8776 270.153 89.8776 270.362V277.195H93.6133C93.7901 277.195 93.9267 277.243 94.0231 277.339C94.1195 277.428 94.1677 277.556 94.1677 277.725C94.1677 277.894 94.1195 278.026 94.0231 278.123C93.9267 278.219 93.7901 278.267 93.6133 278.267H89.2631ZM97.7573 278.376C97.1628 278.376 96.6486 278.251 96.2148 278.002C95.789 277.753 95.4556 277.4 95.2146 276.942C94.9736 276.484 94.8531 275.946 94.8531 275.327C94.8531 274.853 94.9213 274.431 95.0579 274.062C95.1945 273.692 95.3873 273.375 95.6363 273.11C95.8934 272.837 96.1987 272.632 96.5522 272.495C96.9137 272.35 97.3154 272.278 97.7573 272.278C98.3437 272.278 98.8498 272.403 99.2756 272.652C99.7095 272.901 100.047 273.254 100.288 273.712C100.529 274.162 100.649 274.7 100.649 275.327C100.649 275.793 100.581 276.215 100.445 276.592C100.308 276.97 100.111 277.291 99.8541 277.556C99.605 277.821 99.2997 278.026 98.9382 278.171C98.5847 278.308 98.1911 278.376 97.7573 278.376ZM97.7573 277.436C98.0866 277.436 98.3759 277.356 98.6249 277.195C98.8739 277.034 99.0668 276.797 99.2033 276.484C99.3479 276.171 99.4202 275.785 99.4202 275.327C99.4202 274.636 99.2676 274.114 98.9623 273.76C98.657 273.407 98.2553 273.23 97.7573 273.23C97.4198 273.23 97.1266 273.311 96.8776 273.471C96.6285 273.624 96.4317 273.857 96.2871 274.17C96.1505 274.483 96.0822 274.869 96.0822 275.327C96.0822 276.01 96.2349 276.532 96.5401 276.894C96.8454 277.255 97.2511 277.436 97.7573 277.436ZM104.8 280.545C104.366 280.545 103.944 280.501 103.535 280.412C103.133 280.324 102.767 280.179 102.438 279.979C102.318 279.914 102.237 279.834 102.197 279.738C102.157 279.649 102.145 279.557 102.161 279.46C102.185 279.364 102.229 279.28 102.293 279.207C102.358 279.135 102.434 279.087 102.522 279.063C102.619 279.039 102.719 279.055 102.824 279.111C103.177 279.304 103.511 279.432 103.824 279.496C104.145 279.569 104.443 279.605 104.716 279.605C105.278 279.605 105.7 279.46 105.981 279.171C106.262 278.89 106.403 278.472 106.403 277.918V276.689H106.511C106.391 277.131 106.138 277.48 105.752 277.737C105.366 277.994 104.921 278.123 104.414 278.123C103.884 278.123 103.422 278.002 103.029 277.761C102.635 277.512 102.33 277.171 102.113 276.737C101.896 276.295 101.787 275.781 101.787 275.194C101.787 274.753 101.848 274.355 101.968 274.001C102.097 273.648 102.273 273.343 102.498 273.086C102.731 272.828 103.008 272.632 103.33 272.495C103.659 272.35 104.021 272.278 104.414 272.278C104.929 272.278 105.374 272.407 105.752 272.664C106.138 272.921 106.387 273.27 106.499 273.712L106.379 273.917V272.917C106.379 272.716 106.431 272.563 106.535 272.459C106.648 272.354 106.796 272.302 106.981 272.302C107.174 272.302 107.323 272.354 107.427 272.459C107.531 272.563 107.584 272.716 107.584 272.917V277.773C107.584 278.689 107.347 279.38 106.873 279.846C106.399 280.312 105.708 280.545 104.8 280.545ZM104.704 277.171C105.057 277.171 105.358 277.09 105.607 276.93C105.856 276.769 106.049 276.54 106.186 276.243C106.322 275.946 106.391 275.596 106.391 275.194C106.391 274.592 106.238 274.114 105.933 273.76C105.636 273.407 105.226 273.23 104.704 273.23C104.358 273.23 104.061 273.311 103.812 273.471C103.563 273.632 103.366 273.861 103.221 274.158C103.085 274.447 103.017 274.793 103.017 275.194C103.017 275.805 103.169 276.287 103.474 276.64C103.78 276.994 104.189 277.171 104.704 277.171ZM113.469 278.352C113.269 278.352 113.112 278.295 113 278.183C112.895 278.071 112.843 277.914 112.843 277.713V270.326C112.843 270.117 112.895 269.96 113 269.856C113.112 269.744 113.269 269.687 113.469 269.687C113.67 269.687 113.823 269.744 113.927 269.856C114.04 269.96 114.096 270.117 114.096 270.326V277.713C114.096 277.914 114.044 278.071 113.939 278.183C113.835 278.295 113.678 278.352 113.469 278.352ZM116.658 278.352C116.465 278.352 116.316 278.299 116.212 278.195C116.108 278.083 116.055 277.93 116.055 277.737V272.917C116.055 272.716 116.108 272.563 116.212 272.459C116.316 272.354 116.461 272.302 116.646 272.302C116.839 272.302 116.983 272.354 117.08 272.459C117.184 272.563 117.236 272.716 117.236 272.917V273.857L117.104 273.64C117.28 273.19 117.558 272.853 117.935 272.628C118.313 272.395 118.747 272.278 119.237 272.278C119.703 272.278 120.088 272.367 120.394 272.543C120.707 272.712 120.94 272.973 121.092 273.327C121.245 273.672 121.321 274.11 121.321 274.64V277.737C121.321 277.93 121.269 278.083 121.165 278.195C121.06 278.299 120.912 278.352 120.719 278.352C120.518 278.352 120.365 278.299 120.261 278.195C120.157 278.083 120.104 277.93 120.104 277.737V274.712C120.104 274.206 120.004 273.837 119.803 273.604C119.61 273.371 119.305 273.254 118.887 273.254C118.397 273.254 118.003 273.407 117.706 273.712C117.417 274.017 117.272 274.427 117.272 274.941V277.737C117.272 278.147 117.068 278.352 116.658 278.352Z" fill="white"/>
</g>
</g>
<defs>
<filter id="filter0_d_2_87" x="0.822784" y="103.666" width="208.626" height="238.511" filterUnits="userSpaceOnUse" color-interpolation-filters="sRGB">
<feFlood flood-opacity="0" result="BackgroundImageFix"/>
<feColorMatrix in="SourceAlpha" type="matrix" values="0 0 0 0 0 0 0 0 0 0 0 0 0 0 0 0 0 0 127 0" result="hardAlpha"/>
<feOffset/>
<feGaussianBlur stdDeviation="21.0886"/>
<feComposite in2="hardAlpha" operator="out"/>
<feColorMatrix type="matrix" values="0 0 0 0 0 0 0 0 0 0 0 0 0 0 0 0 0 0 0.1 0"/>
<feBlend mode="normal" in2="BackgroundImageFix" result="effect1_dropShadow_2_87"/>
<feBlend mode="normal" in="SourceGraphic" in2="effect1_dropShadow_2_87" result="shape"/>
</filter>
<filter id="filter1_d_2_87" x="65.0415" y="261.964" width="80.1899" height="27.114" filterUnits="userSpaceOnUse" color-interpolation-filters="sRGB">
<feFlood flood-opacity="0" result="BackgroundImageFix"/>
<feColorMatrix in="SourceAlpha" type="matrix" values="0 0 0 0 0 0 0 0 0 0 0 0 0 0 0 0 0 0 127 0" result="hardAlpha"/>
<feOffset dy="0.753165"/>
<feGaussianBlur stdDeviation="0.753165"/>
<feColorMatrix type="matrix" values="0 0 0 0 0.0627451 0 0 0 0 0.0941176 0 0 0 0 0.156863 0 0 0 0.05 0"/>
<feBlend mode="normal" in2="BackgroundImageFix" result="effect1_dropShadow_2_87"/>
<feBlend mode="normal" in="SourceGraphic" in2="effect1_dropShadow_2_87" result="shape"/>
</filter>
</defs>
</svg>
